<?xml version="1.0" encoding="UTF-8"?>
<svg version="1.1" xmlns="http://www.w3.org/2000/svg" width="225" height="225">
<path d="M0 0 C1.65939146 1.29531602 3.30690206 2.60611953 4.9375 3.9375 C5.57945312 4.42863281 6.22140625 4.91976563 6.8828125 5.42578125 C21.86752578 17.35307545 31.18710587 36.86064436 34.578125 55.44921875 C37.4915316 83.72826329 26.94132657 105.08301167 12.9375 128.9375 C11.76872548 130.94223878 10.60076966 132.94745508 9.43359375 134.953125 C7.0647357 139.02160777 4.69225656 143.08794035 2.31640625 147.15234375 C-0.69430751 152.30446273 -3.69626889 157.4615459 -6.6875 162.625 C-7.12425049 163.37861816 -7.56100098 164.13223633 -8.01098633 164.90869141 C-10.9467483 169.98392982 -13.84917423 175.07746511 -16.74291992 180.17675781 C-19.16657166 184.43973089 -21.60705761 188.69276338 -24.0625 192.9375 C-24.42359863 193.56253418 -24.78469727 194.18756836 -25.15673828 194.83154297 C-32.98705546 208.23865058 -32.98705546 208.23865058 -39.94140625 210.56640625 C-46.8756859 211.77958593 -53.07426386 211.59632399 -59.30859375 208.203125 C-63.36843213 205.27353116 -65.89430086 201.8518837 -68.34765625 197.52734375 C-68.95536865 196.46418945 -69.56308105 195.40103516 -70.18920898 194.30566406 C-70.82802002 193.17354492 -71.46683105 192.04142578 -72.125 190.875 C-72.79498626 189.69851255 -73.465647 188.52240895 -74.13696289 187.34667969 C-75.48361471 184.98701449 -76.82737562 182.62574159 -78.16894531 180.26318359 C-80.75393032 175.7231287 -83.37467345 171.20430198 -86 166.6875 C-88.97752063 161.55240232 -91.93929299 156.40916444 -94.875 151.25 C-97.91217875 145.9177868 -101.00043238 140.61720716 -104.10253906 135.32250977 C-106.53161944 131.17245373 -108.95074809 127.01667657 -111.36572266 122.85839844 C-112.43866895 121.011387 -113.51360799 119.16553047 -114.59130859 117.32128906 C-127.18168648 95.70686927 -134.32807045 73.38715082 -128.09375 48.36328125 C-121.21517462 25.51286226 -108.61103627 8.2675856 -88.18359375 -4.39453125 C-84.54075237 -6.34133134 -80.85723287 -7.90847154 -77 -9.375 C-76.36368652 -9.61750488 -75.72737305 -9.86000977 -75.07177734 -10.10986328 C-50.43391479 -18.97849099 -21.29474162 -15.24808659 0 0 Z M-71.4375 48.71875 C-77.09011448 56.43674285 -78.18315703 64.54477666 -77.0625 73.9375 C-75.04119096 82.41742963 -70.10544528 89.6311053 -62.6875 94.3125 C-53.74734399 98.32015614 -45.40573152 98.74897352 -36 95.875 C-29.40759662 93.12036492 -23.79733549 87.9774668 -20.5625 81.625 C-17.17684038 73.3019201 -16.52265966 64.17314906 -19.5625 55.5625 C-23.29649212 47.56860138 -29.85218962 41.99049357 -38.0625 38.9375 C-50.32412144 35.27396677 -62.96842357 39.26161465 -71.4375 48.71875 Z " fill="#820581" transform="translate(160.0625,14.0625)"/>
<path d="M0 0 C1.485 0.99 1.485 0.99 3 2 C2.67 2.66 2.34 3.32 2 4 C2.99 4.33 3.98 4.66 5 5 C4.67 5.99 4.34 6.98 4 8 C4.99 8 5.98 8 7 8 C7.33 8.99 7.66 9.98 8 11 C7.67 11.66 7.34 12.32 7 13 C7.66 13 8.32 13 9 13 C9.33 15.31 9.66 17.62 10 20 C7.20356382 16.57544124 5.25995711 12.81870229 3.3125 8.875 C2.83200195 7.92560547 2.83200195 7.92560547 2.34179688 6.95703125 C0 2.25346482 0 2.25346482 0 0 Z " fill="#AB60AB" transform="translate(36,111)"/>
<path d="M0 0 C4.02118642 2.06493357 6.01334998 3.92213943 8 8 C8 8.66 8 9.32 8 10 C8.66 10 9.32 10 10 10 C10.33 11.32 10.66 12.64 11 14 C5.12722552 11.36737696 2.93011354 7.55711188 0 2 C0 1.34 0 0.68 0 0 Z " fill="#A45BA3" transform="translate(91,208)"/>
<path d="M0 0 C0.33 0.66 0.66 1.32 1 2 C-0.24282012 4.45038293 -1.52882339 6.773325 -2.9375 9.125 C-3.32357422 9.78371094 -3.70964844 10.44242188 -4.10742188 11.12109375 C-5.06446578 12.751613 -6.03132815 14.37636184 -7 16 C-7.33 16 -7.66 16 -8 16 C-8.125 10.25 -8.125 10.25 -7 8 C-6.01 8 -5.02 8 -4 8 C-4 7.01 -4 6.02 -4 5 C-3.34 5 -2.68 5 -2 5 C-2 3.68 -2 2.36 -2 1 C-1.34 0.67 -0.68 0.34 0 0 Z " fill="#A763AA" transform="translate(186,116)"/>
<path d="M0 0 C0.99 0.33 1.98 0.66 3 1 C3 1.66 3 2.32 3 3 C4.45833358 4.62514468 4.45833358 4.62514468 6 6 C5.67 6.66 5.34 7.32 5 8 C5.99 8 6.98 8 8 8 C8.33 8.99 8.66 9.98 9 11 C8.01 12.485 8.01 12.485 7 14 C5.82807953 12.04480616 4.6626071 10.0857461 3.5 8.125 C2.8503125 7.03445312 2.200625 5.94390625 1.53125 4.8203125 C0 2 0 2 0 0 Z " fill="#AB60AB" transform="translate(51,139)"/>
<path d="M0 0 C0.99 0.33 1.98 0.66 3 1 C-0.17320782 4.53586014 -2.16743695 6.58578031 -7 7 C-6.34 5.68 -5.68 4.36 -5 3 C-3.68 3 -2.36 3 -1 3 C-0.67 2.01 -0.34 1.02 0 0 Z " fill="#A054A1" transform="translate(125,217)"/>
<path d="M0 0 C-0.33 1.65 -0.66 3.3 -1 5 C-3.31 5 -5.62 5 -8 5 C-6.19780722 -0.02039417 -5.34443412 -1.60333024 0 0 Z " fill="#780377" transform="translate(119,219)"/>
<path d="M0 0 C0 3.44360632 -0.79591532 4.74795392 -2.5 7.6875 C-2.9640625 8.49574219 -3.428125 9.30398437 -3.90625 10.13671875 C-4.2671875 10.75160156 -4.628125 11.36648437 -5 12 C-5.33 12 -5.66 12 -6 12 C-6.20140476 8.37471432 -5.85776765 6.13498292 -4 3 C-3.34 3 -2.68 3 -2 3 C-2 2.34 -2 1.68 -2 1 C-1.34 0.67 -0.68 0.34 0 0 Z " fill="#A456A5" transform="translate(147,184)"/>
<path d="M0 0 C1.2989839 0.90626784 2.58893167 1.82549537 3.875 2.75 C4.59429687 3.26046875 5.31359375 3.7709375 6.0546875 4.296875 C8.08570565 6.07503547 8.97855012 7.52701607 10 10 C5.32307692 8.52307692 5.32307692 8.52307692 3.6875 5.875 C3.460625 5.25625 3.23375 4.6375 3 4 C2.01 4 1.02 4 0 4 C0 2.68 0 1.36 0 0 Z " fill="#A25AA3" transform="translate(164,18)"/>
<path d="M0 0 C0.99 0 1.98 0 3 0 C3.28875 0.969375 3.5775 1.93875 3.875 2.9375 C4.64214682 6.10664203 4.64214682 6.10664203 7 7 C7 8.65 7 10.3 7 12 C3.71534104 9.20803989 1.98678042 5.76803183 0 2 C0 1.34 0 0.68 0 0 Z " fill="#AE62AC" transform="translate(84,196)"/>
<path d="M0 0 C0 3.44360632 -0.79591532 4.74795392 -2.5 7.6875 C-2.9640625 8.49574219 -3.428125 9.30398437 -3.90625 10.13671875 C-4.2671875 10.75160156 -4.628125 11.36648437 -5 12 C-6.43088528 9.13822943 -5.59991697 7.06624227 -5 4 C-4.01 4 -3.02 4 -2 4 C-2 3.01 -2 2.02 -2 1 C-1.34 0.67 -0.68 0.34 0 0 Z " fill="#AF69AF" transform="translate(154,172)"/>
<path d="M0 0 C0.66 0 1.32 0 2 0 C1.979375 1.19625 1.95875 2.3925 1.9375 3.625 C1.93117429 7.18004869 2.30111125 10.50555624 3 14 C-0.07478929 10.92521071 -0.90166318 7.47505223 -1.1875 3.1875 C-1 1 -1 1 0 0 Z " fill="#AF6BAF" transform="translate(33,96)"/>
<path d="M0 0 C0.99 0 1.98 0 3 0 C1.50902342 3.7952131 -0.75700849 5.61042731 -4 8 C-3.67 6.02 -3.34 4.04 -3 2 C-2.34 2 -1.68 2 -1 2 C-0.67 1.34 -0.34 0.68 0 0 Z " fill="#A04D9D" transform="translate(92,56)"/>
<path d="M0 0 C0.33 0.99 0.66 1.98 1 3 C-1.97 5.475 -1.97 5.475 -5 8 C-5.66 7.67 -6.32 7.34 -7 7 C-4.78071806 4.09197539 -3.07030857 2.04687238 0 0 Z " fill="#A563A3" transform="translate(57,21)"/>
<path d="M0 0 C1.5625 1.8125 1.5625 1.8125 3 4 C2.67 4.99 2.34 5.98 2 7 C1.67 6.67 1.34 6.34 1 6 C0.67 6.66 0.34 7.32 0 8 C-1.5625 5.625 -1.5625 5.625 -3 3 C-2.67 2.34 -2.34 1.68 -2 1 C-1.34 1.33 -0.68 1.66 0 2 C0 1.34 0 0.68 0 0 Z " fill="#A04BA3" transform="translate(83,188)"/>
<path d="M0 0 C0.268125 0.639375 0.53625 1.27875 0.8125 1.9375 C1.88667752 4.33131686 1.88667752 4.33131686 5 5 C5 6.98 5 8.96 5 11 C2.25722422 7.80009492 0.3697164 4.99500618 -1 1 C-0.67 0.67 -0.34 0.34 0 0 Z " fill="#AD67AE" transform="translate(60,152)"/>
<path d="M0 0 C0.33 1.32 0.66 2.64 1 4 C-0.32 4.33 -1.64 4.66 -3 5 C-2.01 3.35 -1.02 1.7 0 0 Z M-3 5 C-3 6.98 -3 8.96 -3 11 C-3.99 10.67 -4.98 10.34 -6 10 C-6 8.68 -6 7.36 -6 6 C-4 5 -4 5 -3 5 Z " fill="#780676" transform="translate(170,140)"/>
<path d="M0 0 C-5.625 3 -5.625 3 -9 3 C-9 2.34 -9 1.68 -9 1 C-9.66 0.67 -10.32 0.34 -11 0 C-3.375 -1.125 -3.375 -1.125 0 0 Z " fill="#730873" transform="translate(121,113)"/>
<path d="M0 0 C0.66 0 1.32 0 2 0 C2 0.99 2 1.98 2 3 C3.65 2.67 5.3 2.34 7 2 C7 2.99 7 3.98 7 5 C5.68 5.33 4.36 5.66 3 6 C1.68 4.35 0.36 2.7 -1 1 C-0.67 0.67 -0.34 0.34 0 0 Z " fill="#9A3B99" transform="translate(134,59)"/>
<path d="M0 0 C0.99 0 1.98 0 3 0 C1.7508258 3.45925163 0.32472205 6.14693203 -2 9 C-2 7.02 -2 5.04 -2 3 C-1.34 3 -0.68 3 0 3 C0 2.01 0 1.02 0 0 Z " fill="#A85CA7" transform="translate(175,132)"/>
<path d="M0 0 C0.66 0.66 1.32 1.32 2 2 C1.625 4.625 1.625 4.625 1 7 C-0.32 7.33 -1.64 7.66 -3 8 C-1.125 2.25 -1.125 2.25 0 0 Z " fill="#A25BA1" transform="translate(140,92)"/>
<path d="M0 0 C0 0.66 0 1.32 0 2 C0.66 2.33 1.32 2.66 2 3 C-2.29 2.67 -6.58 2.34 -11 2 C-11 1.67 -11 1.34 -11 1 C-7.26513121 0.4254048 -3.78706732 0 0 0 Z " fill="#A859A5" transform="translate(120,50)"/>
<path d="M0 0 C0 3.58534593 -1.02362045 5.07495826 -3 8 C-3.33 8 -3.66 8 -4 8 C-4 6.02 -4 4.04 -4 2 C-2.68 1.34 -1.36 0.68 0 0 Z " fill="#B473B6" transform="translate(171,143)"/>
<path d="M0 0 C0.66 0 1.32 0 2 0 C1.39816251 2.02045442 0.72693904 4.02111039 0 6 C-0.99 6.495 -0.99 6.495 -2 7 C-2 6.01 -2 5.02 -2 4 C-2.66 3.67 -3.32 3.34 -4 3 C-3.01 2.67 -2.02 2.34 -1 2 C-0.67 1.34 -0.34 0.68 0 0 Z " fill="#AC5EAC" transform="translate(165,151)"/>
<path d="M0 0 C0.99 0.33 1.98 0.66 3 1 C3 1.99 3 2.98 3 4 C2.34 4 1.68 4 1 4 C0.67 4.66 0.34 5.32 0 6 C-0.66 5.67 -1.32 5.34 -2 5 C-2 4.34 -2 3.68 -2 3 C-1.34 3 -0.68 3 0 3 C0 2.01 0 1.02 0 0 Z " fill="#790477" transform="translate(50,128)"/>
<path d="M0 0 C2.9375 0.375 2.9375 0.375 6 1 C6.33 1.66 6.66 2.32 7 3 C4.03 2.505 4.03 2.505 1 2 C1 2.66 1 3.32 1 4 C0.34 4 -0.32 4 -1 4 C-0.67 2.68 -0.34 1.36 0 0 Z " fill="#790576" transform="translate(145,9)"/>
<path d="" fill="#FFFFFF" transform="translate(0,0)"/>
<path d="" fill="#FFFFFF" transform="translate(0,0)"/>
<path d="" fill="#FFFFFF" transform="translate(0,0)"/>
<path d="" fill="#FFFFFF" transform="translate(0,0)"/>
<path d="" fill="#FFFFFF" transform="translate(0,0)"/>
<path d="" fill="#FFFFFF" transform="translate(0,0)"/>
<path d="" fill="#FFFFFF" transform="translate(0,0)"/>
<path d="" fill="#FFFFFF" transform="translate(0,0)"/>
<path d="" fill="#FFFFFF" transform="translate(0,0)"/>
<path d="" fill="#FFFFFF" transform="translate(0,0)"/>
<path d="" fill="#FFFFFF" transform="translate(0,0)"/>
<path d="" fill="#FFFFFF" transform="translate(0,0)"/>
<path d="" fill="#FFFFFF" transform="translate(0,0)"/>
<path d="" fill="#FFFFFF" transform="translate(0,0)"/>
<path d="" fill="#FFFFFF" transform="translate(0,0)"/>
<path d="" fill="#FFFFFF" transform="translate(0,0)"/>
<path d="" fill="#FFFFFF" transform="translate(0,0)"/>
<path d="" fill="#FFFFFF" transform="translate(0,0)"/>
<path d="" fill="#FFFFFF" transform="translate(0,0)"/>
<path d="" fill="#FFFFFF" transform="translate(0,0)"/>
<path d="" fill="#FFFFFF" transform="translate(0,0)"/>
<path d="" fill="#FFFFFF" transform="translate(0,0)"/>
<path d="" fill="#FFFFFF" transform="translate(0,0)"/>
<path d="" fill="#FFFFFF" transform="translate(0,0)"/>
<path d="" fill="#FFFFFF" transform="translate(0,0)"/>
<path d="" fill="#FFFFFF" transform="translate(0,0)"/>
<path d="" fill="#FFFFFF" transform="translate(0,0)"/>
<path d="" fill="#FFFFFF" transform="translate(0,0)"/>
<path d="" fill="#FFFFFF" transform="translate(0,0)"/>
<path d="" fill="#FFFFFF" transform="translate(0,0)"/>
<path d="" fill="#FFFFFF" transform="translate(0,0)"/>
<path d="" fill="#FFFFFF" transform="translate(0,0)"/>
<path d="" fill="#FFFFFF" transform="translate(0,0)"/>
<path d="" fill="#FFFFFF" transform="translate(0,0)"/>
<path d="" fill="#FFFFFF" transform="translate(0,0)"/>
<path d="" fill="#FFFFFF" transform="translate(0,0)"/>
<path d="" fill="#FFFFFF" transform="translate(0,0)"/>
<path d="" fill="#FFFFFF" transform="translate(0,0)"/>
<path d="" fill="#FFFFFF" transform="translate(0,0)"/>
<path d="" fill="#FFFFFF" transform="translate(0,0)"/>
<path d="" fill="#FFFFFF" transform="translate(0,0)"/>
<path d="" fill="#FFFFFF" transform="translate(0,0)"/>
<path d="" fill="#FFFFFF" transform="translate(0,0)"/>
<path d="" fill="#FFFFFF" transform="translate(0,0)"/>
<path d="" fill="#FFFFFF" transform="translate(0,0)"/>
<path d="" fill="#FFFFFF" transform="translate(0,0)"/>
<path d="" fill="#FFFFFF" transform="translate(0,0)"/>
<path d="" fill="#FFFFFF" transform="translate(0,0)"/>
<path d="" fill="#FFFFFF" transform="translate(0,0)"/>
<path d="" fill="#FFFFFF" transform="translate(0,0)"/>
</svg>
